<?xml version="1.0" encoding="utf-8"?>
<!-- Generator: Adobe Illustrator 25.2.1, SVG Export Plug-In . SVG Version: 6.00 Build 0)  -->
<svg version="1.1" id="Laag_1" xmlns="http://www.w3.org/2000/svg" xmlns:xlink="http://www.w3.org/1999/xlink" x="0px" y="0px"
	 viewBox="0 0 238 94" style="enable-background:new 0 0 238 94;" xml:space="preserve">
<style type="text/css">
	.st0{fill:#1D1D1B;}
	.st1{fill:#706F6F;}
	.st2{fill:#E3E3E3;}
</style>
<polygon class="st0" points="84.9,50.6 86.6,50.6 81,39.5 79.1,39.5 "/>
<polygon class="st0" points="203.2,51.2 208.6,51.2 199.5,33 193.8,33.2 "/>
<polygon class="st0" points="126.5,50.6 129.8,50.6 123.1,37.3 119.8,37.4 "/>
<path class="st0" d="M217.9,19.8c-5.8,1-12.4,5.9-12.4,5.9h-17.3c0,0,8.7-7.4,35.3-11.8C220.6,16.6,217.9,19.8,217.9,19.8z"/>
<path class="st0" d="M127.5,31.9h-12.7c0,0,12.8-15,44-11.4C138.1,22.2,127.5,31.9,127.5,31.9z"/>
<path class="st0" d="M84.5,35.7h-9.9c0,0,10.1-11.5,26.7-7.8C89.4,30.2,84.5,35.7,84.5,35.7z"/>
<path class="st0" d="M57.3,38.4h-8.4c0,0,6.4-9.8,17.6-6C60.1,34.9,57.3,38.4,57.3,38.4z"/>
<path class="st0" d="M38.4,40.2h-7.1c0,0,5.8-8,12.6-4.7C40.3,37,38.4,40.2,38.4,40.2z"/>
<path class="st0" d="M24.6,41.3l-6.1,0c0,0,4.5-7.2,9.9-3.4C26.1,38.5,24.6,41.3,24.6,41.3z"/>
<path class="st0" d="M233.1,3.3l-4,4.2C163.3,11.6,4.9,38.4,4.9,38.4S176.2,6.7,233.1,3.3z"/>
<polygon class="st1" points="176.8,51.2 188.2,25.7 205.5,25.7 217.4,51.2 208.6,51.2 199.5,33 193.8,33.2 185.5,51.2 "/>
<polygon class="st1" points="106.7,50.6 114.9,31.9 127.5,31.9 136.1,50.6 129.8,50.6 123.1,37.3 119,37.4 113,50.6 "/>
<polygon class="st1" points="67.9,50.6 74.6,35.7 84.5,35.7 91.5,50.6 86.3,50.6 80.9,40 77.6,40.1 72.6,50.6 "/>
<g>
	<polygon class="st0" points="57.8,50.1 58.7,50.1 54.3,41.8 53.2,41.8 	"/>
	<polygon class="st1" points="43.4,50.1 48.9,38.4 57.3,38.4 63,50.1 58.7,50.1 54.3,41.8 51.6,41.9 47.6,50.1 	"/>
</g>
<g>
	<polygon class="st0" points="38.8,50.1 39.6,50.1 35.9,43 35.1,43.1 	"/>
	<polygon class="st1" points="26.7,50.1 31.3,40.2 38.4,40.2 43.2,50.1 39.6,50.1 35.9,43 33.6,43.1 30.2,50.1 	"/>
</g>
<g>
	<polygon class="st0" points="25.2,50.1 25.6,50.1 22.4,43.8 21.9,43.9 	"/>
	<polygon class="st1" points="14.5,50.1 18.5,41.3 24.6,41.3 28.7,50.1 25.6,50.1 22.4,43.8 20.5,43.9 17.5,50.1 	"/>
</g>
<g>
	<path d="M15.4,84.3V71.5h-2.1v-3h2.1v-0.7c0-2,0.5-4.1,1.9-5.4c1.2-1.1,2.7-1.5,4.1-1.5c1.1,0,1.9,0.2,2.6,0.4l-0.3,3.1
		c-0.4-0.2-1-0.3-1.7-0.3c-2,0-2.7,1.6-2.7,3.6v0.8h3.5v3h-3.4v12.8H15.4z"/>
	<path d="M25.3,73.6c0-2.1,0-3.7-0.1-5.1h3.5l0.1,3h0.1c0.8-2.2,2.6-3.4,4.3-3.4c0.4,0,0.6,0,0.9,0.1V72c-0.3-0.1-0.7-0.1-1.2-0.1
		c-1.9,0-3.2,1.2-3.6,3c-0.1,0.4-0.1,0.8-0.1,1.2v8.1h-4V73.6z"/>
	<path d="M39.3,77.5c0.1,2.8,2.3,4.1,4.8,4.1c1.8,0,3.2-0.3,4.4-0.7l0.6,2.7c-1.4,0.5-3.2,1-5.5,1c-5.1,0-8.1-3.1-8.1-8
		c0-4.4,2.7-8.5,7.7-8.5c5.1,0,6.8,4.2,6.8,7.7c0,0.7-0.1,1.3-0.1,1.7H39.3z M46.2,74.7c0-1.5-0.6-3.8-3.3-3.8
		c-2.5,0-3.5,2.2-3.7,3.8H46.2z"/>
	<path d="M53,80.6c0.9,0.5,2.6,1.1,4,1.1c1.7,0,2.5-0.7,2.5-1.7c0-1.1-0.6-1.6-2.6-2.3c-3.1-1.1-4.4-2.7-4.3-4.6
		c0-2.8,2.3-4.9,5.9-4.9c1.7,0,3.3,0.5,4.2,0.9L62,71.9C61.3,71.5,60,71,58.6,71c-1.4,0-2.2,0.7-2.2,1.6c0,1,0.7,1.5,2.7,2.2
		c2.8,1,4.2,2.5,4.2,4.8c0,2.8-2.2,4.9-6.4,4.9c-1.9,0-3.6-0.5-4.8-1.1L53,80.6z"/>
	<path d="M66.6,61.3h4v9.4h0.1c0.5-0.7,1.1-1.4,2-1.8c0.8-0.5,1.7-0.7,2.7-0.7c2.7,0,5.5,1.8,5.5,6.8v9.3h-4v-8.8c0-2.3-0.8-4-3-4
		c-1.6,0-2.7,1-3.1,2.2c-0.1,0.3-0.2,0.7-0.2,1.2v9.4h-4V61.3z"/>
	<path class="st1" d="M85.4,73.7c0-2-0.1-3.6-0.1-5.1h2.6l0.1,2.7H88c1.2-1.9,3-3,5.6-3c3.8,0,6.6,3.2,6.6,8c0,5.6-3.4,8.4-7.1,8.4
		c-2.1,0-3.9-0.9-4.8-2.5h-0.1v8.5h-2.8V73.7z M88.2,77.9c0,0.4,0.1,0.8,0.1,1.2c0.5,2,2.2,3.3,4.3,3.3c3,0,4.8-2.5,4.8-6
		c0-3.1-1.6-5.8-4.7-5.8c-1.9,0-3.7,1.4-4.3,3.5c-0.1,0.4-0.2,0.8-0.2,1.2V77.9z"/>
	<path class="st1" d="M116.8,80c0,1.6,0,3,0.1,4.3h-2.5l-0.2-2.6h-0.1c-0.7,1.3-2.4,2.9-5.2,2.9c-2.5,0-5.4-1.4-5.4-6.9v-9.1h2.8
		v8.7c0,3,0.9,5,3.5,5c1.9,0,3.2-1.3,3.7-2.6c0.2-0.4,0.3-0.9,0.3-1.5v-9.6h2.8V80z"/>
	<path class="st1" d="M121.4,84.3c0.1-1.1,0.1-2.7,0.1-4V61.3h2.8v9.8h0.1c1-1.7,2.8-2.9,5.3-2.9c3.9,0,6.6,3.2,6.6,8
		c0,5.6-3.5,8.4-7,8.4c-2.3,0-4.1-0.9-5.2-2.9H124l-0.1,2.6H121.4z M124.4,78c0,0.4,0.1,0.7,0.1,1c0.5,2,2.2,3.3,4.3,3.3
		c3,0,4.8-2.4,4.8-6c0-3.1-1.6-5.8-4.7-5.8c-1.9,0-3.7,1.3-4.3,3.5c-0.1,0.3-0.2,0.7-0.2,1.2V78z"/>
	<path class="st1" d="M139.9,61.3h2.8v22.9h-2.8V61.3z"/>
	<path class="st1" d="M150.7,64.2c0,1-0.7,1.7-1.8,1.7c-1,0-1.7-0.8-1.7-1.7c0-1,0.7-1.8,1.8-1.8C150.1,62.4,150.7,63.2,150.7,64.2z
		 M147.6,84.3V68.6h2.8v15.6H147.6z"/>
	<path class="st1" d="M154.8,81.3c0.8,0.5,2.3,1.1,3.7,1.1c2.1,0,3-1,3-2.3c0-1.4-0.8-2.1-2.9-2.9c-2.8-1-4.1-2.6-4.1-4.4
		c0-2.5,2-4.6,5.4-4.6c1.6,0,3,0.5,3.8,1l-0.7,2.1c-0.6-0.4-1.7-0.9-3.2-0.9c-1.7,0-2.6,1-2.6,2.1c0,1.3,0.9,1.9,3,2.7
		c2.7,1,4.1,2.4,4.1,4.7c0,2.7-2.1,4.7-5.9,4.7c-1.7,0-3.3-0.4-4.4-1.1L154.8,81.3z"/>
	<path class="st1" d="M167.9,61.3h2.8v9.8h0.1c0.5-0.8,1.2-1.5,2-2c0.8-0.5,1.8-0.8,2.9-0.8c2.1,0,5.5,1.3,5.5,6.7v9.3h-2.8v-9
		c0-2.5-0.9-4.7-3.6-4.7c-1.8,0-3.3,1.3-3.8,2.8c-0.2,0.4-0.2,0.8-0.2,1.4v9.4h-2.8V61.3z"/>
	<path class="st1" d="M187.5,76.9c0.1,3.8,2.5,5.4,5.4,5.4c2,0,3.3-0.4,4.3-0.8l0.5,2c-1,0.5-2.7,1-5.2,1c-4.8,0-7.7-3.2-7.7-7.9
		c0-4.7,2.8-8.4,7.3-8.4c5.1,0,6.5,4.5,6.5,7.4c0,0.6-0.1,1-0.1,1.3H187.5z M195.8,74.9c0-1.8-0.7-4.6-3.9-4.6
		c-2.9,0-4.1,2.7-4.4,4.6H195.8z"/>
	<path class="st1" d="M202.1,73.5c0-1.8,0-3.4-0.1-4.9h2.5l0.1,3.1h0.1c0.7-2.1,2.4-3.4,4.3-3.4c0.3,0,0.5,0,0.8,0.1V71
		c-0.3-0.1-0.6-0.1-1-0.1c-2,0-3.4,1.5-3.8,3.7c-0.1,0.4-0.1,0.8-0.1,1.3v8.3h-2.8V73.5z"/>
	<path class="st1" d="M212.3,81.3c0.8,0.5,2.3,1.1,3.7,1.1c2.1,0,3-1,3-2.3c0-1.4-0.8-2.1-2.9-2.9c-2.8-1-4.1-2.6-4.1-4.4
		c0-2.5,2-4.6,5.4-4.6c1.6,0,3,0.5,3.8,1l-0.7,2.1c-0.6-0.4-1.7-0.9-3.2-0.9c-1.7,0-2.6,1-2.6,2.1c0,1.3,0.9,1.9,3,2.7
		c2.7,1,4.1,2.4,4.1,4.7c0,2.7-2.1,4.7-5.9,4.7c-1.7,0-3.3-0.4-4.4-1.1L212.3,81.3z"/>
</g>
<path class="st2" d="M223.5,13.9c0,0-24.5,3.8-35.3,11.8l-11.4,25.5h-5.4l10.2-25.4c0,0-40.9-16.3-66.8,6.1l-8.1,18.7l-3.3,0l8-18.8
	c0,0-19.2-12.8-36.9,3.8c0,0-4.1,9-6.7,14.9h-2.2l6.9-14.9c0,0-13.1-10.9-23.7,2.7l-5.5,11.7h-0.8l5-11.7c0,0-6.8-9.5-16.2,1.8
	l-4.6,9.9l-0.8,0l4.5-10c0,0-5.2-8.1-12,1.2l-4,8.8h-0.6l3.9-8.8c0,0-2.3-3.8-9.1-3.4C5.2,38.5,141.4,13.9,229.1,7.6L223.5,13.9z"/>
</svg>
